<?xml version="1.0" encoding="UTF-8"?>
<svg id="_Слой_1" data-name="Слой 1" xmlns="http://www.w3.org/2000/svg" viewBox="0 0 359.33 432.99">
  <defs>
    <style>
      .cls-1 {
        fill: #fefefe;
      }

      .cls-1, .cls-2, .cls-3, .cls-4, .cls-5 {
        stroke-width: 0px;
      }

      .cls-2 {
        fill: #fdfefe;
      }

      .cls-3 {
        fill: #0089fe;
      }

      .cls-4 {
        fill: #068bfe;
      }

      .cls-5 {
        fill: #fafcfe;
      }
    </style>
  </defs>
  <path class="cls-3" d="m4.55,183.76s.02.06.02.09c.18,3.31.44,5.84.42,6.06-.17,1.62,1.88,39.29,23.7,87.24,0,0,35.1,86.63,145.99,153.97,4.15,2.52,7.18,2.5,11.3-.05,53.09-32.93,103.71-68.5,133.23-126.29,30.6-59.9,40.48-124.15,40.11-190.73-.06-11.95-3.21-17.36-14.73-21.88-57.78-22.65-112.6-50.95-160.94-90.58-.06-.05-.12-.09-.19-.12-10.2-4.78-16.35,3.26-23.03,8.01C115.84,41.24,66.28,62.88,17.23,87.15c-5.79,2.87-12.15,6.21-15.27,12.55-1.68,3.41-1.95,6.74-1.96,9.03"/>
  <path class="cls-1" d="m316.94,134.61c-.02.07-.03.14-.04.2-2.19,33.71-7.23,63.56-14.86,93.07-17.83,68.91-61.81,116.8-120.78,153.13-6.98,4.3-11.48,2.37-17.57-1.21-77.65-45.62-119.01-114.51-129.71-202.92-2.29-18.9-8.78-40.14-2.8-56.41,5.95-16.19,30.48-17.37,46.54-25.72,29.09-15.14,57.91-30.67,84.73-49.55,8.21-5.78,13.73-5.59,21.94.1,35.82,24.82,73.76,46.2,114.18,62.4,15.4,6.17,22.62,13.79,18.38,26.92Z"/>
  <path class="cls-3" d="m97.96,239.44c-.35-21.44-2.43-42.89,15.94-59.98,3.76-3.5,1.72-13.61,1.78-20.68.33-41.6,26.65-70.72,64.18-70.81,37.44-.09,64.6,29.25,64.4,70.52-.06,12.24.71,22.97,10.35,32.41,6.38,6.25,7.7,15.9,7.68,25.1-.03,15.51.38,31.03-.09,46.52-.84,27.62-17.54,43.71-45.53,44.02-23.21.26-46.43.09-69.64.03-33.56-.08-48.76-15.36-49.07-49.24-.05-5.96,0-11.93,0-17.89Z"/>
  <path class="cls-2" d="m180.35,270.96h-1.79c-50,0-49.81.02-45.6-51.14.68-8.22,3.31-11.83,11.68-11.75,23.84.24,47.68.14,71.51.08,7.38-.02,11.07,3.27,10.62,10.8-.04.68-.02,1.36.02,2.03q3.41,49.98-46.46,49.98Z"/>
  <path class="cls-5" d="m152.29,172.52c-3.1-19.77,5.02-44.07,20.84-47.98,14.11-3.49,28.99,4.76,33.63,19.17,1.42,4.41,5.65,22.66,1.98,27.76"/>
  <path class="cls-4" d="m179.1,257.52c-.05,0-.1,0-.15,0-10.08-1.11-16.56-6.65-16.59-17.02-.03-11.28,6.85-17.59,18-17.46,10.47.12,16.93,7.02,16.96,16.87.03,10.74-6.72,17.2-18.21,17.62Z"/>
</svg>